<svg xmlns="http://www.w3.org/2000/svg" viewBox="0 0 16 16">
  <g id="mute" fill="none" fill-rule="evenodd">
    <path id="Path" fill="#FFFFFF" fill-rule="nonzero" d="M10.972 14.758c.26 0 .471-.083.633-.25a.848.848 0 0 0 .25-.625V1.898a.911.911 0 0 0-.25-.648.838.838 0 0 0-.649-.273.974.974 0 0 0-.492.125 2.736 2.736 0 0 0-.516.414L6.62 4.64a.281.281 0 0 1-.195.07H4.183c-.526 0-.93.146-1.211.437-.281.287-.422.711-.422 1.274v2.906c0 .568.14.995.422 1.281.281.287.685.43 1.21.43h2.243a.28.28 0 0 1 .195.07l3.328 3.157c.178.171.347.296.508.375.162.078.334.117.516.117z"/>
  </g>
</svg>
