<svg xmlns="http://www.w3.org/2000/svg" viewBox="0 0 16 16">
  <g id="unmute" fill="none" fill-rule="evenodd">
    <path id="Path" fill="#FFFFFF" fill-rule="nonzero" d="M4.148 11.063h2.227c.078 0 .143.023.195.07l3.375 3.156c.183.172.354.297.516.375.161.078.33.117.508.117a.877.877 0 0 0 .523-.156c.146-.104.25-.268.313-.492L2.898 5.234c-.229.26-.343.651-.343 1.172v2.992c0 .563.132.982.398 1.258.266.271.664.407 1.195.407z"/>
    <path id="Path" fill="#FFFFFF" fill-rule="nonzero" d="M11.86 9.922v-8a.91.91 0 0 0-.25-.649A.838.838 0 0 0 10.96 1a.93.93 0 0 0-.492.133c-.146.083-.32.219-.524.406l-3.14 2.914a.187.187 0 0 1-.133.063h-.235l5.422 5.406z"/>
    <path id="Path" fill="#FFFFFF" fill-rule="nonzero" d="M14.562 15.602c.115.12.256.18.422.18.172 0 .313-.06.422-.18.12-.12.18-.263.18-.43a.577.577 0 0 0-.18-.422L2.031 1.375a.6.6 0 0 0-.43-.172.56.56 0 0 0-.43.172.583.583 0 0 0-.171.43c0 .166.057.307.172.422l13.39 13.375z"/>
  </g>
</svg>
